<svg width="254" height="58" viewBox="0 0 254 58" fill="none" xmlns="http://www.w3.org/2000/svg">
<path d="M35.4961 45H26.707L9.59766 16.9336V45H0.808594V2.34375H9.59766L26.7363 30.4688V2.34375H35.4961V45ZM57.2051 45.5859C52.5566 45.5859 48.7676 44.1602 45.8379 41.3086C42.9277 38.457 41.4727 34.6582 41.4727 29.9121V29.0918C41.4727 25.9082 42.0879 23.0664 43.3184 20.5664C44.5488 18.0469 46.2871 16.1133 48.5332 14.7656C50.7988 13.3984 53.377 12.7148 56.2676 12.7148C60.6035 12.7148 64.0117 14.082 66.4922 16.8164C68.9922 19.5508 70.2422 23.4277 70.2422 28.4473V31.9043H50.0566C50.3301 33.9746 51.1504 35.6348 52.5176 36.8848C53.9043 38.1348 55.6523 38.7598 57.7617 38.7598C61.0234 38.7598 63.5723 37.5781 65.4082 35.2148L69.5684 39.873C68.2988 41.6699 66.5801 43.0762 64.4121 44.0918C62.2441 45.0879 59.8418 45.5859 57.2051 45.5859ZM56.2383 19.5703C54.5586 19.5703 53.1914 20.1367 52.1367 21.2695C51.1016 22.4023 50.4375 24.0234 50.1445 26.1328H61.9219V25.459C61.8828 23.584 61.375 22.1387 60.3984 21.123C59.4219 20.0879 58.0352 19.5703 56.2383 19.5703ZM73.8457 28.916C73.8457 24.0527 74.998 20.1367 77.3027 17.168C79.627 14.1992 82.752 12.7148 86.6777 12.7148C90.1543 12.7148 92.8594 13.9063 94.793 16.2891L95.1445 13.3008H102.82V43.9453C102.82 46.7188 102.186 49.1309 100.916 51.1816C99.666 53.2324 97.8984 54.7949 95.6133 55.8691C93.3281 56.9434 90.6523 57.4805 87.5859 57.4805C85.2617 57.4805 82.9961 57.0117 80.7891 56.0742C78.582 55.1562 76.9121 53.9648 75.7793 52.5L79.5293 47.3438C81.6387 49.707 84.1973 50.8887 87.2051 50.8887C89.4512 50.8887 91.1992 50.2832 92.4492 49.0723C93.6992 47.8809 94.3242 46.1816 94.3242 43.9746V42.2754C92.3711 44.4824 89.8027 45.5859 86.6191 45.5859C82.8105 45.5859 79.7246 44.1016 77.3613 41.1328C75.0176 38.1445 73.8457 34.1895 73.8457 29.2676V28.916ZM82.3125 29.5312C82.3125 32.4023 82.8887 34.6582 84.041 36.2988C85.1934 37.9199 86.7754 38.7305 88.7871 38.7305C91.3652 38.7305 93.2109 37.7637 94.3242 35.8301V22.5C93.1914 20.5664 91.3652 19.5996 88.8457 19.5996C86.8145 19.5996 85.2129 20.4297 84.041 22.0898C82.8887 23.75 82.3125 26.2305 82.3125 29.5312ZM127.723 45C127.332 44.2383 127.049 43.291 126.873 42.1582C124.822 44.4434 122.156 45.5859 118.875 45.5859C115.77 45.5859 113.191 44.6875 111.141 42.8906C109.109 41.0938 108.094 38.8281 108.094 36.0938C108.094 32.7344 109.334 30.1562 111.814 28.3594C114.314 26.5625 117.918 25.6543 122.625 25.6348H126.521V23.8184C126.521 22.3535 126.141 21.1816 125.379 20.3027C124.637 19.4238 123.455 18.9844 121.834 18.9844C120.408 18.9844 119.285 19.3262 118.465 20.0098C117.664 20.6934 117.264 21.6309 117.264 22.8223H108.797C108.797 20.9863 109.363 19.2871 110.496 17.7246C111.629 16.1621 113.23 14.9414 115.301 14.0625C117.371 13.1641 119.695 12.7148 122.273 12.7148C126.18 12.7148 129.275 13.7012 131.561 15.6738C133.865 17.627 135.018 20.3809 135.018 23.9355V37.6758C135.037 40.6836 135.457 42.959 136.277 44.502V45H127.723ZM120.721 39.1113C121.971 39.1113 123.123 38.8379 124.178 38.291C125.232 37.7246 126.014 36.9727 126.521 36.0352V30.5859H123.357C119.119 30.5859 116.863 32.0508 116.59 34.9805L116.561 35.4785C116.561 36.5332 116.932 37.4023 117.674 38.0859C118.416 38.7695 119.432 39.1113 120.721 39.1113ZM157.869 29.3848H150.867V45H142.078V2.34375H157.928C162.967 2.34375 166.854 3.4668 169.588 5.71289C172.322 7.95898 173.689 11.1328 173.689 15.2344C173.689 18.1445 173.055 20.5762 171.785 22.5293C170.535 24.4629 168.631 26.0059 166.072 27.1582L175.301 44.5898V45H165.867L157.869 29.3848ZM150.867 22.2656H157.957C160.164 22.2656 161.873 21.709 163.084 20.5957C164.295 19.4629 164.9 17.9102 164.9 15.9375C164.9 13.9258 164.324 12.3437 163.172 11.1914C162.039 10.0391 160.291 9.46289 157.928 9.46289H150.867V22.2656ZM198.211 45C197.82 44.2383 197.537 43.291 197.361 42.1582C195.311 44.4434 192.645 45.5859 189.363 45.5859C186.258 45.5859 183.68 44.6875 181.629 42.8906C179.598 41.0938 178.582 38.8281 178.582 36.0938C178.582 32.7344 179.822 30.1562 182.303 28.3594C184.803 26.5625 188.406 25.6543 193.113 25.6348H197.01V23.8184C197.01 22.3535 196.629 21.1816 195.867 20.3027C195.125 19.4238 193.943 18.9844 192.322 18.9844C190.896 18.9844 189.773 19.3262 188.953 20.0098C188.152 20.6934 187.752 21.6309 187.752 22.8223H179.285C179.285 20.9863 179.852 19.2871 180.984 17.7246C182.117 16.1621 183.719 14.9414 185.789 14.0625C187.859 13.1641 190.184 12.7148 192.762 12.7148C196.668 12.7148 199.764 13.7012 202.049 15.6738C204.354 17.627 205.506 20.3809 205.506 23.9355V37.6758C205.525 40.6836 205.945 42.959 206.766 44.502V45H198.211ZM191.209 39.1113C192.459 39.1113 193.611 38.8379 194.666 38.291C195.721 37.7246 196.502 36.9727 197.01 36.0352V30.5859H193.846C189.607 30.5859 187.352 32.0508 187.078 34.9805L187.049 35.4785C187.049 36.5332 187.42 37.4023 188.162 38.0859C188.904 38.7695 189.92 39.1113 191.209 39.1113ZM220.945 45H212.449V13.3008H220.945V45ZM211.951 5.09766C211.951 3.82813 212.371 2.7832 213.211 1.96289C214.07 1.14258 215.232 0.732422 216.697 0.732422C218.143 0.732422 219.295 1.14258 220.154 1.96289C221.014 2.7832 221.443 3.82813 221.443 5.09766C221.443 6.38672 221.004 7.44141 220.125 8.26172C219.266 9.08203 218.123 9.49219 216.697 9.49219C215.271 9.49219 214.119 9.08203 213.24 8.26172C212.381 7.44141 211.951 6.38672 211.951 5.09766ZM237.674 38.1738H253.172V45H226.863V39.8438L241.775 20.1562H227.303V13.3008H252.703V18.3105L237.674 38.1738Z" fill="#9B51E0"/>
</svg>
